<?xml version="1.0" encoding="UTF-8" standalone="no"?><svg xmlns="http://www.w3.org/2000/svg" xmlns:xlink="http://www.w3.org/1999/xlink" contentScriptType="application/ecmascript" contentStyleType="text/css" height="279px" preserveAspectRatio="none" style="width:412px;height:279px;" version="1.1" viewBox="0 0 412 279" width="412px" zoomAndPan="magnify"><defs><filter height="300%" id="f1awpqcsqw0pac" width="300%" x="-1" y="-1"><feGaussianBlur result="blurOut" stdDeviation="2.0"/><feColorMatrix in="blurOut" result="blurOut2" type="matrix" values="0 0 0 0 0 0 0 0 0 0 0 0 0 0 0 0 0 0 .4 0"/><feOffset dx="4.0" dy="4.0" in="blurOut2" result="blurOut3"/><feBlend in="SourceGraphic" in2="blurOut3" mode="normal"/></filter></defs><g><!--MD5=[e69084ab16b022bdbef99762ea85e9d6]
class Movie--><rect codeLine="1" fill="#FEFECE" filter="url(#f1awpqcsqw0pac)" height="99.2188" id="Movie" style="stroke:#A80036;stroke-width:1.5;" width="86" x="120.5" y="166"/><ellipse cx="144.05" cy="182" fill="#ADD1B2" rx="11" ry="11" style="stroke:#A80036;stroke-width:1.0;"/><path d="M147.0188,187.6406 Q146.4406,187.9375 145.8,188.0781 Q145.1594,188.2344 144.4563,188.2344 Q141.9563,188.2344 140.6281,186.5938 Q139.3156,184.9375 139.3156,181.8125 Q139.3156,178.6875 140.6281,177.0313 Q141.9563,175.375 144.4563,175.375 Q145.1594,175.375 145.8,175.5313 Q146.4563,175.6875 147.0188,175.9844 L147.0188,178.7031 Q146.3938,178.125 145.8,177.8594 Q145.2063,177.5781 144.5813,177.5781 Q143.2375,177.5781 142.55,178.6563 Q141.8625,179.7188 141.8625,181.8125 Q141.8625,183.9063 142.55,184.9844 Q143.2375,186.0469 144.5813,186.0469 Q145.2063,186.0469 145.8,185.7813 Q146.3938,185.5 147.0188,184.9219 L147.0188,187.6406 Z " fill="#000000"/><text fill="#000000" font-family="sans-serif" font-size="12" lengthAdjust="spacingAndGlyphs" textLength="35" x="159.95" y="186.1543">Movie</text><line style="stroke:#A80036;stroke-width:1.5;" x1="121.5" x2="205.5" y1="198" y2="198"/><text fill="#000000" font-family="sans-serif" font-size="11" lengthAdjust="spacingAndGlyphs" text-decoration="underline" textLength="25" x="126.5" y="212.2104">year</text><text fill="#000000" font-family="sans-serif" font-size="11" lengthAdjust="spacingAndGlyphs" text-decoration="underline" textLength="21" x="126.5" y="225.0151">title</text><text fill="#000000" font-family="sans-serif" font-size="11" lengthAdjust="spacingAndGlyphs" textLength="53" x="126.5" y="237.8198">imdb_key</text><text fill="#000000" font-family="sans-serif" font-size="11" lengthAdjust="spacingAndGlyphs" textLength="74" x="126.5" y="250.6245">running_time</text><line style="stroke:#A80036;stroke-width:1.5;" x1="121.5" x2="205.5" y1="257.2188" y2="257.2188"/><!--MD5=[ac6bea31e13c94c7baa9ad18feb7405e]
class Ticket--><rect codeLine="7" fill="#FEFECE" filter="url(#f1awpqcsqw0pac)" height="60.8047" id="Ticket" style="stroke:#A80036;stroke-width:1.5;" width="69" x="242" y="185"/><ellipse cx="257" cy="201" fill="#ADD1B2" rx="11" ry="11" style="stroke:#A80036;stroke-width:1.0;"/><path d="M259.9688,206.6406 Q259.3906,206.9375 258.75,207.0781 Q258.1094,207.2344 257.4063,207.2344 Q254.9063,207.2344 253.5781,205.5938 Q252.2656,203.9375 252.2656,200.8125 Q252.2656,197.6875 253.5781,196.0313 Q254.9063,194.375 257.4063,194.375 Q258.1094,194.375 258.75,194.5313 Q259.4063,194.6875 259.9688,194.9844 L259.9688,197.7031 Q259.3438,197.125 258.75,196.8594 Q258.1563,196.5781 257.5313,196.5781 Q256.1875,196.5781 255.5,197.6563 Q254.8125,198.7188 254.8125,200.8125 Q254.8125,202.9063 255.5,203.9844 Q256.1875,205.0469 257.5313,205.0469 Q258.1563,205.0469 258.75,204.7813 Q259.3438,204.5 259.9688,203.9219 L259.9688,206.6406 Z " fill="#000000"/><text fill="#000000" font-family="sans-serif" font-size="12" lengthAdjust="spacingAndGlyphs" textLength="37" x="271" y="205.1543">Ticket</text><line style="stroke:#A80036;stroke-width:1.5;" x1="243" x2="310" y1="217" y2="217"/><text fill="#000000" font-family="sans-serif" font-size="11" lengthAdjust="spacingAndGlyphs" text-decoration="underline" textLength="49" x="248" y="231.2104">ticked_id</text><line style="stroke:#A80036;stroke-width:1.5;" x1="243" x2="310" y1="237.8047" y2="237.8047"/><!--MD5=[2ce0c9fb7f55b1e256ab28a8ea6b25ec]
class Customer--><rect codeLine="10" fill="#FEFECE" filter="url(#f1awpqcsqw0pac)" height="99.2188" id="Customer" style="stroke:#A80036;stroke-width:1.5;" width="92" x="306.5" y="7"/><ellipse cx="321.5" cy="23" fill="#ADD1B2" rx="11" ry="11" style="stroke:#A80036;stroke-width:1.0;"/><path d="M324.4688,28.6406 Q323.8906,28.9375 323.25,29.0781 Q322.6094,29.2344 321.9063,29.2344 Q319.4063,29.2344 318.0781,27.5938 Q316.7656,25.9375 316.7656,22.8125 Q316.7656,19.6875 318.0781,18.0313 Q319.4063,16.375 321.9063,16.375 Q322.6094,16.375 323.25,16.5313 Q323.9063,16.6875 324.4688,16.9844 L324.4688,19.7031 Q323.8438,19.125 323.25,18.8594 Q322.6563,18.5781 322.0313,18.5781 Q320.6875,18.5781 320,19.6563 Q319.3125,20.7188 319.3125,22.8125 Q319.3125,24.9063 320,25.9844 Q320.6875,27.0469 322.0313,27.0469 Q322.6563,27.0469 323.25,26.7813 Q323.8438,26.5 324.4688,25.9219 L324.4688,28.6406 Z " fill="#000000"/><text fill="#000000" font-family="sans-serif" font-size="12" lengthAdjust="spacingAndGlyphs" textLength="60" x="335.5" y="27.1543">Customer</text><line style="stroke:#A80036;stroke-width:1.5;" x1="307.5" x2="397.5" y1="39" y2="39"/><text fill="#000000" font-family="sans-serif" font-size="11" lengthAdjust="spacingAndGlyphs" text-decoration="underline" textLength="58" x="312.5" y="53.2104">username</text><text fill="#000000" font-family="sans-serif" font-size="11" lengthAdjust="spacingAndGlyphs" textLength="56" x="312.5" y="66.0151">password</text><text fill="#000000" font-family="sans-serif" font-size="11" lengthAdjust="spacingAndGlyphs" textLength="61" x="312.5" y="78.8198">first_name</text><text fill="#000000" font-family="sans-serif" font-size="11" lengthAdjust="spacingAndGlyphs" textLength="59" x="312.5" y="91.6245">last_name</text><line style="stroke:#A80036;stroke-width:1.5;" x1="307.5" x2="397.5" y1="98.2188" y2="98.2188"/><!--MD5=[fa5b27f77fe197a60cf8f352dcfe1889]
class Screening--><rect codeLine="16" fill="#FEFECE" filter="url(#f1awpqcsqw0pac)" height="86.4141" id="Screening" style="stroke:#A80036;stroke-width:1.5;" width="95" x="123" y="13.5"/><ellipse cx="138" cy="29.5" fill="#ADD1B2" rx="11" ry="11" style="stroke:#A80036;stroke-width:1.0;"/><path d="M140.9688,35.1406 Q140.3906,35.4375 139.75,35.5781 Q139.1094,35.7344 138.4063,35.7344 Q135.9063,35.7344 134.5781,34.0938 Q133.2656,32.4375 133.2656,29.3125 Q133.2656,26.1875 134.5781,24.5313 Q135.9063,22.875 138.4063,22.875 Q139.1094,22.875 139.75,23.0313 Q140.4063,23.1875 140.9688,23.4844 L140.9688,26.2031 Q140.3438,25.625 139.75,25.3594 Q139.1563,25.0781 138.5313,25.0781 Q137.1875,25.0781 136.5,26.1563 Q135.8125,27.2188 135.8125,29.3125 Q135.8125,31.4063 136.5,32.4844 Q137.1875,33.5469 138.5313,33.5469 Q139.1563,33.5469 139.75,33.2813 Q140.3438,33 140.9688,32.4219 L140.9688,35.1406 Z " fill="#000000"/><text fill="#000000" font-family="sans-serif" font-size="12" lengthAdjust="spacingAndGlyphs" textLength="63" x="152" y="33.6543">Screening</text><line style="stroke:#A80036;stroke-width:1.5;" x1="124" x2="217" y1="45.5" y2="45.5"/><text fill="#000000" font-family="sans-serif" font-size="11" lengthAdjust="spacingAndGlyphs" text-decoration="underline" textLength="72" x="129" y="59.7104">screening_id</text><text fill="#000000" font-family="sans-serif" font-size="11" lengthAdjust="spacingAndGlyphs" textLength="58" x="129" y="72.5151">start_time</text><text fill="#000000" font-family="sans-serif" font-size="11" lengthAdjust="spacingAndGlyphs" textLength="58" x="129" y="85.3198">start_date</text><line style="stroke:#A80036;stroke-width:1.5;" x1="124" x2="217" y1="91.9141" y2="91.9141"/><!--MD5=[6fa3e4350d44af662413ad1d54c020bd]
class Theater--><rect codeLine="21" fill="#FEFECE" filter="url(#f1awpqcsqw0pac)" height="73.6094" id="Theater" style="stroke:#A80036;stroke-width:1.5;" width="81" x="7" y="19.5"/><ellipse cx="22" cy="35.5" fill="#ADD1B2" rx="11" ry="11" style="stroke:#A80036;stroke-width:1.0;"/><path d="M24.9688,41.1406 Q24.3906,41.4375 23.75,41.5781 Q23.1094,41.7344 22.4063,41.7344 Q19.9063,41.7344 18.5781,40.0938 Q17.2656,38.4375 17.2656,35.3125 Q17.2656,32.1875 18.5781,30.5313 Q19.9063,28.875 22.4063,28.875 Q23.1094,28.875 23.75,29.0313 Q24.4063,29.1875 24.9688,29.4844 L24.9688,32.2031 Q24.3438,31.625 23.75,31.3594 Q23.1563,31.0781 22.5313,31.0781 Q21.1875,31.0781 20.5,32.1563 Q19.8125,33.2188 19.8125,35.3125 Q19.8125,37.4063 20.5,38.4844 Q21.1875,39.5469 22.5313,39.5469 Q23.1563,39.5469 23.75,39.2813 Q24.3438,39 24.9688,38.4219 L24.9688,41.1406 Z " fill="#000000"/><text fill="#000000" font-family="sans-serif" font-size="12" lengthAdjust="spacingAndGlyphs" textLength="49" x="36" y="39.6543">Theater</text><line style="stroke:#A80036;stroke-width:1.5;" x1="8" x2="87" y1="51.5" y2="51.5"/><text fill="#000000" font-family="sans-serif" font-size="11" lengthAdjust="spacingAndGlyphs" text-decoration="underline" textLength="32" x="13" y="65.7104">name</text><text fill="#000000" font-family="sans-serif" font-size="11" lengthAdjust="spacingAndGlyphs" textLength="46" x="13" y="78.5151">capacity</text><line style="stroke:#A80036;stroke-width:1.5;" x1="8" x2="87" y1="85.1094" y2="85.1094"/><ellipse cx="269.5" cy="56.5" fill="#000000" rx="2" ry="2" style="stroke:none;stroke-width:1.0;"/><!--MD5=[e7d348d7cb7f45d436145efade5f1f8b]
link Theater to Screening--><path codeLine="26" d="M88.34,56.5 C99.79,56.5 111.23,56.5 122.68,56.5 " fill="none" id="Theater-Screening" style="stroke:#A80036;stroke-width:1.0;"/><text fill="#000000" font-family="sans-serif" font-size="13" lengthAdjust="spacingAndGlyphs" textLength="8" x="96.0469" y="52.3228">1</text><text fill="#000000" font-family="sans-serif" font-size="13" lengthAdjust="spacingAndGlyphs" textLength="7" x="108.1424" y="52.4447">*</text><!--MD5=[a65dd75fb6ff23a4e652fda226f7093b]
link Screening to Movie--><path codeLine="27" d="M168.62,99.57 C167.71,120.01 166.61,144.68 165.67,165.91 " fill="none" id="Screening-Movie" style="stroke:#A80036;stroke-width:1.0;"/><text fill="#000000" font-family="sans-serif" font-size="13" lengthAdjust="spacingAndGlyphs" textLength="7" x="160.7289" y="119.9893">*</text><text fill="#000000" font-family="sans-serif" font-size="13" lengthAdjust="spacingAndGlyphs" textLength="8" x="157.4127" y="154.9426">1</text><!--MD5=[273a0a6e02c8f6b8180ae4117f448ea6]
link Screening to apoint10--><path d="M218.07,56.5 C234.54,56.5 251.02,56.5 267.49,56.5 " fill="none" id="Screening-apoint10" style="stroke:#A80036;stroke-width:1.0;"/><text fill="#000000" font-family="sans-serif" font-size="13" lengthAdjust="spacingAndGlyphs" textLength="7" x="225.8901" y="52.3969">*</text><!--MD5=[b6a20ab21e6f9800a93fb53ec14f48eb]
link apoint10 to Customer--><path d="M271.77,56.5 C283.33,56.5 294.9,56.5 306.46,56.5 " fill="none" id="apoint10-Customer" style="stroke:#A80036;stroke-width:1.0;"/><text fill="#000000" font-family="sans-serif" font-size="13" lengthAdjust="spacingAndGlyphs" textLength="7" x="291.5646" y="52.3647">*</text><!--MD5=[f47e67323ef092be21be79a878b3c761]
link apoint10 to Ticket--><path d="M269.54,58.5 C269.97,67.98 273.29,142.43 275.18,184.96 " fill="none" id="apoint10-Ticket" style="stroke:#A80036;stroke-width:1.0;stroke-dasharray:7.0,7.0;"/><!--MD5=[6862d650aaa7940dce8eae340048bb63]
@startuml
class Movie {
	{static} year
	{static} title
	imdb_key
	running_time
}
class Ticket {
	{static} ticked_id
}
class Customer {
	  {static} username
	  password
	  first_name
	  last_name
}
class Screening {
	{static} screening_id	
	start_time
	start_date	
}
class Theater {
	{static} name
	capacity	
}

Theater "1" - "*" Screening
Screening "*" - - "1" Movie
Screening "*" - "*" Customer
(Screening, Customer) .. Ticket
@enduml

PlantUML version 1.2020.24(Fri Dec 18 18:00:36 CET 2020)
(GPL source distribution)
Java Runtime: OpenJDK Runtime Environment
JVM: OpenJDK 64-Bit Server VM
Default Encoding: UTF-8
Language: en
Country: US
--></g></svg>